Coordinates
version=1
nRows=20
nColumns=38
inDegrees=no

Units are S.I. units (second, meters, Newtons, ...)
If the header above contains a line with 'inDegrees', this indicates whether rotational values are in degrees (yes) or radians (no).

endheader
time	pelvis_tilt	pelvis_list	pelvis_rotation	pelvis_tx	pelvis_ty	pelvis_tz	hip_flexion_r	hip_adduction_r	hip_rotation_r	knee_angle_r	ankle_angle_r	subtalar_angle_r	mtp_angle_r	hip_flexion_l	hip_adduction_l	hip_rotation_l	knee_angle_l	ankle_angle_l	subtalar_angle_l	mtp_angle_l	lumbar_extension	lumbar_bending	lumbar_rotation	arm_flex_r	arm_add_r	arm_rot_r	elbow_flex_r	pro_sup_r	wrist_flex_r	wrist_dev_r	arm_flex_l	arm_add_l	arm_rot_l	elbow_flex_l	pro_sup_l	wrist_flex_l	wrist_dev_l
64.08	1.70465	1.5269	-0.0153892	0.668926	0.643014	0.925752	0.151099	-0.0984152	-0.134452	0.468875	-0.267393	0	0	0.0750851	-0.187427	-0.379358	0.354622	-0.356067	0	0	-0.214014	0.127295	-0.103484	0.136314	-0.454033	0.539453	0.494079	0.833686	0	0	-0.00598289	-0.321642	0.162827	0.742643	1.50106	0	0
64.09	1.60249	1.52681	0.0867214	0.669216	0.640989	0.924567	0.166771	-0.0991478	-0.129177	0.484598	-0.264251	0	0	0.0916294	-0.190611	-0.377044	0.373695	-0.349612	0	0	-0.217796	0.129426	-0.101123	0.139864	-0.455114	0.531801	0.496883	0.837143	0	0	-0.00451268	-0.322718	0.161442	0.750618	1.50078	0	0
64.1	1.48307	1.52641	0.205628	0.669578	0.638824	0.923211	0.183196	-0.100044	-0.122515	0.49898	-0.26088	0	0	0.109448	-0.193623	-0.374678	0.39324	-0.343225	0	0	-0.221393	0.130998	-0.0982776	0.143639	-0.456096	0.5241	0.499679	0.841618	0	0	-0.0030639	-0.324097	0.160128	0.759304	1.50066	0	0
64.11	1.35656	1.52526	0.331443	0.670021	0.636565	0.9217	0.200742	-0.101127	-0.11615	0.514186	-0.257461	0	0	0.12841	-0.196864	-0.37177	0.4134	-0.337033	0	0	-0.224891	0.132404	-0.0953706	0.147632	-0.457135	0.516003	0.502901	0.847206	0	0	-0.0017245	-0.325763	0.15881	0.768506	1.50085	0	0
64.12	1.21649	1.52275	0.470386	0.670553	0.634221	0.919965	0.220844	-0.102144	-0.110016	0.531554	-0.253296	0	0	0.149417	-0.200727	-0.368671	0.434942	-0.329992	0	0	-0.227618	0.133841	-0.0920087	0.151445	-0.458192	0.506611	0.506645	0.856511	0	0	-0.000644198	-0.327238	0.156931	0.77828	1.50129	0	0
64.13	1.09865	1.51926	0.587245	0.671073	0.631779	0.918164	0.241282	-0.103206	-0.105908	0.549839	-0.24969	0	0	0.17055	-0.20501	-0.365051	0.456827	-0.323548	0	0	-0.231154	0.135598	-0.0887334	0.155345	-0.459225	0.495518	0.511006	0.86499	0	0	0.000412495	-0.328558	0.154323	0.788526	1.50183	0	0
64.14	1.01109	1.51495	0.674105	0.671559	0.629272	0.916351	0.260698	-0.104041	-0.106076	0.56797	-0.246153	0	0	0.191368	-0.210257	-0.361993	0.479172	-0.317375	0	0	-0.235827	0.138054	-0.0856001	0.159288	-0.460249	0.483373	0.515889	0.873033	0	0	0.0014327	-0.329664	0.151153	0.799102	1.50258	0	0
64.15	1.79448	1.51901	-0.0891977	0.670294	0.629127	0.918696	0.199438	-0.0982802	-0.180077	0.5542	-0.23253	0	0	0.157503	-0.223719	-0.362873	0.491369	-0.314905	0	0	-0.286527	0.15199	-0.0991078	0.163488	-0.461153	0.467305	0.525578	0.885501	0	0	0.00309035	-0.334298	0.149368	0.816236	1.50013	0	0
64.16	1.01786	1.50341	0.665298	0.671298	0.623538	0.914402	0.295629	-0.101575	-0.159251	0.673104	-0.170462	0	0	0.224683	-0.224241	-0.348786	0.516095	-0.307125	0	0	-0.259063	0.153483	-0.0755663	0.170179	-0.466172	0.453622	0.528679	0.901052	0	0	0.00821121	-0.323805	0.13818	0.816565	1.51268	0	0
64.17	0.973444	1.50019	0.708827	0.671665	0.620994	0.912619	0.311512	-0.103688	-0.161078	0.687052	-0.16823	0	0	0.241635	-0.227819	-0.34408	0.534746	-0.302433	0	0	-0.266552	0.155583	-0.0722294	0.176105	-0.468292	0.447554	0.533365	0.906053	0	0	0.0101271	-0.32433	0.135372	0.825703	1.51385	0	0
64.18	0.932582	1.49775	0.746304	0.67236	0.61826	0.910857	0.32784	-0.105184	-0.159023	0.70238	-0.166666	0	0	0.25695	-0.231457	-0.342696	0.552756	-0.297021	0	0	-0.276003	0.156168	-0.0669363	0.182742	-0.470044	0.439848	0.538836	0.912066	0	0	0.0120617	-0.325215	0.132071	0.835685	1.5149	0	0
64.19	0.886629	1.49591	0.787812	0.673197	0.615454	0.909039	0.34444	-0.106729	-0.154666	0.718125	-0.164401	0	0	0.271592	-0.234464	-0.343043	0.570068	-0.291786	0	0	-0.286078	0.155405	-0.0608324	0.189174	-0.471215	0.430421	0.544747	0.918356	0	0	0.0143265	-0.326306	0.129299	0.845494	1.51591	0	0
64.2	0.831758	1.49345	0.840574	0.673843	0.612856	0.907026	0.362126	-0.110104	-0.152868	0.734406	-0.162767	0	0	0.287864	-0.236541	-0.341337	0.5873	-0.286827	0	0	-0.294327	0.154774	-0.0569827	0.194583	-0.471602	0.420111	0.550103	0.924955	0	0	0.0164945	-0.327176	0.126687	0.853995	1.51644	0	0
64.21	0.772687	1.49034	0.897814	0.674471	0.610257	0.904893	0.380074	-0.113482	-0.151662	0.75053	-0.160443	0	0	0.305203	-0.238321	-0.338991	0.604586	-0.282208	0	0	-0.301852	0.153991	-0.0535732	0.200205	-0.471892	0.409727	0.555168	0.932486	0	0	0.0188386	-0.328069	0.124544	0.861465	1.51723	0	0
64.22	0.709387	1.48649	0.95826	0.675179	0.607519	0.902614	0.399673	-0.11643	-0.147672	0.766368	-0.158657	0	0	0.323581	-0.239978	-0.336921	0.622167	-0.277784	0	0	-0.309096	0.152615	-0.049406	0.206099	-0.472553	0.399279	0.560922	0.941053	0	0	0.0213705	-0.328828	0.122124	0.868798	1.51808	0	0
64.23	0.652497	1.4823	1.01216	0.675834	0.604737	0.900271	0.419787	-0.118811	-0.143468	0.783799	-0.156145	0	0	0.342082	-0.24166	-0.334769	0.639828	-0.273421	0	0	-0.316617	0.151368	-0.0451809	0.211838	-0.47326	0.388373	0.567299	0.949774	0	0	0.0240179	-0.329122	0.119167	0.87575	1.51891	0	0
64.24	0.600653	1.47765	1.06057	0.676511	0.601893	0.897871	0.440507	-0.120447	-0.136356	0.799859	-0.154804	0	0	0.360808	-0.243612	-0.332881	0.657669	-0.269096	0	0	-0.324294	0.150107	-0.0405627	0.21764	-0.473965	0.377845	0.573945	0.959013	0	0	0.0269234	-0.329192	0.11627	0.882078	1.51997	0	0
64.25	0.559348	1.47325	1.09939	0.677148	0.599149	0.895466	0.460538	-0.121753	-0.129205	0.817179	-0.153225	0	0	0.379	-0.245847	-0.330679	0.675745	-0.264858	0	0	-0.332398	0.149222	-0.0368126	0.2235	-0.474506	0.366791	0.580451	0.968736	0	0	0.0299653	-0.329404	0.113883	0.887804	1.52147	0	0
64.26	0.527894	1.469	1.12967	0.677653	0.596512	0.893069	0.478732	-0.12263	-0.122818	0.83335	-0.150824	0	0	0.396707	-0.247919	-0.32723	0.693324	-0.260608	0	0	-0.340813	0.149139	-0.0339776	0.229164	-0.474774	0.355166	0.586714	0.978	0	0	0.0333705	-0.32947	0.112062	0.892642	1.523	0	0
64.27	0.503057	1.46534	1.15377	0.678094	0.593923	0.890692	0.495702	-0.123409	-0.116513	0.84901	-0.148091	0	0	0.413366	-0.249976	-0.3241	0.71051	-0.25641	0	0	-0.350002	0.149227	-0.0314989	0.235004	-0.475031	0.343556	0.592906	0.987253	0	0	0.0371563	-0.32945	0.110281	0.89689	1.52452	0	0
